<?xml version="1.0" encoding="utf-8"?>
<!-- Generator: Adobe Illustrator 23.0.1, SVG Export Plug-In . SVG Version: 6.00 Build 0)  -->
<svg version="1.1" xmlns="http://www.w3.org/2000/svg" xmlns:xlink="http://www.w3.org/1999/xlink" x="0px" y="0px"
	 viewBox="0 0 751 670" style="enable-background:new 0 0 751 670;" xml:space="preserve">
<style type="text/css">
	.st0{fill:#C0F3EA;stroke:#00B39B;stroke-width:4;stroke-miterlimit:10;}
	.st1{fill:#FFFFFF;stroke:#00B39B;stroke-width:5;stroke-miterlimit:10;}
</style>
<g id="Bg">
</g>
<g id="Object">
	<path class="st0" d="M28.65,643.97c8.5,8.49,20.25,13.36,32.26,13.36h5.71h24.3H705.1c12,0,23.76-4.87,32.26-13.37
		c8.48-8.49,13.36-20.24,13.36-32.25V234.49H15.29v377.22C15.29,623.72,20.17,635.47,28.65,643.97z"/>
	<path class="st0" d="M90.92,61.2h-24.3h-5.71c-12.01,0-23.76,4.86-32.26,13.35c-8.48,8.49-13.36,20.24-13.36,32.24v53h735.42v-53
		c0-12-4.88-23.74-13.37-32.24c-8.48-8.49-20.24-13.35-32.25-13.35h-77.37v59.71c0,11.14-9.04,20.17-20.18,20.17h-42.52
		c-11.15,0-20.16-9.04-20.16-20.17V61.2H221.17v59.71c0,11.14-9.04,20.17-20.17,20.17h-42.54c-11.15,0-20.16-9.04-20.16-20.17V61.2
		H90.92z"/>
	<polygon class="st1" points="158.46,120.91 201,120.91 201,61.2 201,8.68 158.46,8.68 158.46,61.2 	"/>
	<polygon class="st1" points="565.02,120.91 607.54,120.91 607.54,61.2 607.54,8.68 565.02,8.68 565.02,61.2 	"/>
</g>
</svg>
