<?xml version="1.0" encoding="utf-8"?>
<!-- Generator: Adobe Illustrator 23.0.1, SVG Export Plug-In . SVG Version: 6.00 Build 0)  -->
<svg version="1.1" id="Calque_1" xmlns="http://www.w3.org/2000/svg" xmlns:xlink="http://www.w3.org/1999/xlink" x="0px" y="0px"
	 viewBox="0 0 58.72 73.79" style="enable-background:new 0 0 58.72 73.79;" xml:space="preserve">
<style type="text/css">
	.st0{fill:#C7EEE9;stroke:#1DC3AB;stroke-miterlimit:10;}
</style>
<path class="st0" d="M8.53,70.17L8.53,70.17c-0.38,0-0.68-0.3-0.68-0.68V10.17c0-0.38,0.3-0.68,0.68-0.68h0
	c0.38,0,0.68,0.3,0.68,0.68v59.32C9.21,69.87,8.91,70.17,8.53,70.17z"/>
<path class="st0" d="M18.39,42.87c4.12-1.01,9.6-2.02,13.2-1.42c1.69,0.28,3.12,1.45,3.66,3.07c0.64,1.89,2.18,5.04,5.36,4.95
	c0,0,16.13,1.53,16.32-3.13l0.36-24.1c0.04-2.95-2.66-5.19-5.55-4.58c-5.78,1.21-14.21,2.1-16.26-2.28c0,0-1.41-3.78-4.01-5.25
	c-0.57-0.32-1.22-0.45-1.87-0.47c-2.54-0.1-10.24-0.21-14.55,1.84c-1.61,0.76-2.61,2.41-2.59,4.19l0.22,22.73
	C12.72,41.4,15.5,43.57,18.39,42.87z"/>
</svg>
