<?xml version="1.0" encoding="utf-8"?>
<!-- Generator: Adobe Illustrator 23.0.1, SVG Export Plug-In . SVG Version: 6.00 Build 0)  -->
<svg version="1.1" xmlns="http://www.w3.org/2000/svg" xmlns:xlink="http://www.w3.org/1999/xlink" x="0px" y="0px"
	 viewBox="0 0 231 178" style="enable-background:new 0 0 231 178;" xml:space="preserve">
<style type="text/css">
	.st0{fill:#C0F3EA;stroke:#00B39B;stroke-width:4;stroke-miterlimit:10;}
</style>
<g id="Bg">
	<g>
		<g>
			<g>
				<path class="st0" d="M141.97,52.37c0,14.37-11.66,26.03-26.03,26.03c-14.38,0-26.04-11.66-26.04-26.03
					c0-14.38,11.66-26.03,26.04-26.03C130.31,26.34,141.97,37.99,141.97,52.37z"/>
				<path class="st0" d="M72.81,136.38l2.59-28.86c1.22-9.59,10.13-17.44,19.8-17.44h41.46c9.67,0,18.58,7.86,19.8,17.44l2.58,28.86
					c0,0-4.21,9.03-43.12,9.03C77.02,145.41,72.81,136.38,72.81,136.38z"/>
			</g>
			<g>
				<path class="st0" d="M69.41,77.03c0,11.5-9.32,20.83-20.82,20.83c-11.5,0-20.83-9.32-20.83-20.83c0-11.5,9.32-20.82,20.83-20.82
					C60.09,56.21,69.41,65.53,69.41,77.03z"/>
				<path class="st0" d="M82.87,141.92l0.21,2.32c0,0-3.37,7.22-34.5,7.22c-31.13,0-34.5-7.22-34.5-7.22l2.07-23.08
					c0.98-7.67,8.11-13.95,15.84-13.95h33.17c3.64,0,7.15,1.39,9.94,3.66"/>
			</g>
			<g>
				<path class="st0" d="M204.11,77.03c0,11.5-9.32,20.83-20.82,20.83c-11.5,0-20.83-9.32-20.83-20.83
					c0-11.5,9.32-20.82,20.83-20.82C194.78,56.21,204.11,65.53,204.11,77.03z"/>
				<path class="st0" d="M156.75,110.87c2.79-2.28,6.3-3.67,9.95-3.67h33.17c7.73,0,14.86,6.28,15.84,13.95l2.07,23.08
					c0,0-3.37,7.22-34.5,7.22c-31.13,0-34.5-7.22-34.5-7.22l0.21-2.32"/>
			</g>
		</g>
	</g>
</g>
<g id="Object">
</g>
</svg>
